<?xml version="1.0" standalone="no"?><!DOCTYPE svg PUBLIC "-//W3C//DTD SVG 1.1//EN" "http://www.w3.org/Graphics/SVG/1.1/DTD/svg11.dtd"><svg t="1539417973150" class="icon" style="" viewBox="0 0 1024 1024" version="1.1" xmlns="http://www.w3.org/2000/svg" p-id="1928" xmlns:xlink="http://www.w3.org/1999/xlink" width="32" height="32"><defs><style type="text/css"></style></defs><path d="M904.384 187.84c0-47.104-38.208-85.28-85.312-85.28s-85.312 38.176-85.312 85.28c0 41.248 29.312 75.68 68.256 83.584l0 581.76 34.112 0 0-581.76c38.944-7.904 68.256-42.336 68.256-83.584zM819.072 239.04c-28.224 0-51.168-22.944-51.168-51.168s22.944-51.168 51.168-51.168c28.224 0 51.168 22.944 51.168 51.168s-22.944 51.168-51.168 51.168z" p-id="1929"></path><path d="M221.984 752.544l0-581.76-34.112 0 0 581.76c-38.944 7.904-68.224 42.304-68.224 83.584 0 47.104 38.208 85.312 85.312 85.312s85.312-38.208 85.312-85.312c0-41.28-29.312-75.68-68.256-83.584zM204.928 887.328c-28.224 0-51.168-22.944-51.168-51.168s22.944-51.168 51.168-51.168 51.168 22.944 51.168 51.168-22.944 51.168-51.168 51.168z" p-id="1930"></path><path d="M529.056 428.416l0-257.6-34.112 0 0 257.6c-38.944 7.904-68.256 42.336-68.256 83.584s29.312 75.68 68.256 83.584l0 257.6 34.112 0 0-257.6c38.944-7.904 68.256-42.336 68.256-83.584s-29.312-75.68-68.256-83.584zM512 563.168c-28.224 0-51.168-22.944-51.168-51.168s22.944-51.168 51.168-51.168 51.168 22.944 51.168 51.168-22.944 51.168-51.168 51.168z" p-id="1931"></path></svg>