<?xml version="1.0" standalone="no"?><!DOCTYPE svg PUBLIC "-//W3C//DTD SVG 1.1//EN" "http://www.w3.org/Graphics/SVG/1.1/DTD/svg11.dtd"><svg t="1541213387682" class="icon" style="" viewBox="0 0 1024 1024" version="1.1" xmlns="http://www.w3.org/2000/svg" p-id="1961" xmlns:xlink="http://www.w3.org/1999/xlink" width="32" height="32"><defs><style type="text/css"></style></defs><path d="M444.25216 13.74208c-88.73984 11.79648-177.95072 50.50368-248.99584 107.85792-24.30976 19.58912-64.6656 61.1328-83.54816 86.14912-53.10464 70.0928-87.0912 153.87648-98.41664 241.90976C8.09984 490.496 9.74848 558.46912 16.59904 597.64736 51.7632 793.77408 195.0208 948.8384 387.61472 998.63552c43.89888 11.32544 73.87136 15.104 123.904 15.104 49.5616 0 78.82752-3.54304 124.13952-14.86848 176.5376-43.89888 319.3344-186.68544 363.23328-363.22304C1010.21696 590.32576 1013.76 561.05984 1013.76 511.49824c0-50.26816-3.54304-79.53408-15.33952-125.09184C947.68128 188.38528 780.3392 40.17152 577.37216 13.50656c-34.22208-4.48512-98.89792-4.2496-133.12 0.23552z m120.3712 295.02464c63.95904 11.56096 138.30144 49.32608 201.78944 103.13728 27.38176 23.13216 71.28064 67.7376 85.9136 87.0912l10.14784 13.45536-15.104 18.40128c-21.00224 25.9584-60.18048 64.43008-89.21088 87.79776-63.01696 50.7392-126.50496 82.60608-191.17056 96.29696-26.90048 5.4272-82.8416 5.66272-111.16544 0-77.4144-15.33952-158.12608-61.36832-233.4208-133.10976-20.29568-19.11808-58.0608-61.83936-60.66176-68.44416-2.3552-5.66272 41.54368-54.9888 76.70784-86.14912 111.40096-98.88768 217.84576-137.59488 326.17472-118.4768z" p-id="1962" fill="#f7a106"></path><path d="M476.11904 358.32832c-2.60096 0.47104-10.61888 2.11968-17.70496 3.54304-64.90112 13.21984-143.96416 61.60384-210.75968 129.09568l-20.76672 21.00224 24.30976 24.07424c65.8432 65.85344 132.16768 106.68032 202.26048 124.6208 31.86688 8.26368 77.4144 8.97024 107.6224 2.11968 54.51776-12.50304 106.68032-39.17824 160.72704-81.89952 22.66112-17.94048 71.75168-65.60768 71.75168-69.38624 0-4.2496-45.78304-47.67744-72.69376-69.15072-54.28224-43.19232-111.872-71.9872-163.328-81.664-17.69472-3.54304-68.67968-4.72064-81.41824-2.3552z m58.29632 39.64928c74.10688 15.81056 113.52064 94.16704 82.37056 163.09248-8.4992 18.64704-31.39584 42.9568-49.32608 52.6336-90.63424 48.384-194.24256-32.80896-168.50944-131.93216 10.8544-41.0624 45.78304-74.3424 88.03328-83.31264 19.57888-4.49536 28.07808-4.49536 47.43168-0.48128z" p-id="1963" fill="#f7a106"></path></svg>